<?xml version="1.0" encoding="UTF-8" standalone="no"?>
<!-- Created with Inkscape (http://www.inkscape.org/) -->

<svg
   xmlns:dc="http://purl.org/dc/elements/1.1/"
   xmlns:cc="http://creativecommons.org/ns#"
   xmlns:rdf="http://www.w3.org/1999/02/22-rdf-syntax-ns#"
   xmlns:svg="http://www.w3.org/2000/svg"
   xmlns="http://www.w3.org/2000/svg"
   xmlns:sodipodi="http://sodipodi.sourceforge.net/DTD/sodipodi-0.dtd"
   xmlns:inkscape="http://www.inkscape.org/namespaces/inkscape"
   width="300.00009"
   height="200"
   viewBox="0 0 79.375023 52.916668"
   version="1.1"
   id="svg3357"
   inkscape:version="0.92.4 (5da689c313, 2019-01-14)"
   sodipodi:docname="logo.svg">
  <defs
     id="defs3351" />
  <sodipodi:namedview
     id="base"
     pagecolor="#ffffff"
     bordercolor="#666666"
     borderopacity="1.0"
     inkscape:pageopacity="0.0"
     inkscape:pageshadow="2"
     inkscape:zoom="1.4"
     inkscape:cx="36.075654"
     inkscape:cy="80.531652"
     inkscape:document-units="mm"
     inkscape:current-layer="layer1"
     showgrid="false"
     inkscape:pagecheckerboard="true"
     showborder="false"
     fit-margin-top="0"
     fit-margin-left="0"
     fit-margin-right="0"
     fit-margin-bottom="0"
     units="px"
     inkscape:window-width="1920"
     inkscape:window-height="1027"
     inkscape:window-x="-8"
     inkscape:window-y="-8"
     inkscape:window-maximized="1" />
  <metadata
     id="metadata3354">
    <rdf:RDF>
      <cc:Work
         rdf:about="">
        <dc:format>image/svg+xml</dc:format>
        <dc:type
           rdf:resource="http://purl.org/dc/dcmitype/StillImage" />
        <dc:title></dc:title>
      </cc:Work>
    </rdf:RDF>
  </metadata>
  <g
     inkscape:label="レイヤー 1"
     inkscape:groupmode="layer"
     id="layer1"
     transform="translate(76.729172,-55.851189)">
    <rect
       style="opacity:1;fill:#ffffff;fill-opacity:1;stroke:none;stroke-width:0.49252743;stroke-linecap:round;stroke-linejoin:round;stroke-miterlimit:4;stroke-dasharray:none;stroke-opacity:1;paint-order:fill markers stroke"
       id="rect2026"
       width="79.375023"
       height="52.916668"
       x="-76.729172"
       y="55.851189"
       ry="0.084189989"
       inkscape:export-filename="D:\DL-DEV\prock\01.png"
       inkscape:export-xdpi="400"
       inkscape:export-ydpi="400" />
    <g
       aria-label="Prock"
       style="font-style:normal;font-variant:normal;font-weight:bold;font-stretch:normal;font-size:14.12773609px;line-height:1.25;font-family:Rubik;-inkscape-font-specification:'Rubik, Bold';font-variant-ligatures:normal;font-variant-caps:normal;font-variant-numeric:normal;font-feature-settings:normal;text-align:start;letter-spacing:0.3531934px;word-spacing:0px;writing-mode:lr-tb;text-anchor:start;fill:#31a05f;fill-opacity:1;stroke:none;stroke-width:0.3531934"
       id="text2030"
       inkscape:export-filename="D:\DL-DEV\prock\01.png"
       inkscape:export-xdpi="400"
       inkscape:export-ydpi="400"
       transform="translate(227.54167,76.351186)">
      <path
         style="font-style:normal;font-variant:normal;font-weight:bold;font-stretch:normal;font-size:14.12773609px;font-family:Rubik;-inkscape-font-specification:'Rubik, Bold';font-variant-ligatures:normal;font-variant-caps:normal;font-variant-numeric:normal;font-feature-settings:normal;text-align:start;letter-spacing:0.3531934px;writing-mode:lr-tb;text-anchor:start;fill:#31a05f;fill-opacity:1;stroke-width:1.33490419"
         d="m -1078.5586,3.8300781 c -0.3916,0 -0.7289,0.1429548 -1.0137,0.4277344 -0.2847,0.2847796 -0.4277,0.6240531 -0.4277,1.015625 v 6.8339845 c 5.4818,0 10.9635,0 16.4453,0 1.5663,0 2.8128,0.35641 3.7383,1.068359 0.9611,0.676351 1.4414,1.726493 1.4414,3.150391 0,1.423898 -0.4803,2.491176 -1.4414,3.203125 -0.9255,0.676351 -2.172,1.015625 -3.7383,1.015625 -5.4818,0 -10.9635,0 -16.4453,0 v 19.222656 c 0,0.391572 0.143,0.728892 0.4277,1.013672 0.2848,0.28478 0.6221,0.427734 1.0137,0.427734 h 6.9961 c 0.3916,0 0.7289,-0.142954 1.0137,-0.427734 0.2847,-0.28478 0.4277,-0.6221 0.4277,-1.013672 V 28.873047 h 6.834 c 4.6277,0 8.2412,-1.067278 10.8398,-3.203125 2.6342,-2.135847 3.9512,-5.250044 3.9512,-9.34375 0,-4.093706 -1.317,-7.1907666 -3.9512,-9.2910158 -2.5986,-2.1358468 -6.2121,-3.2050781 -10.8398,-3.2050781 z"
         transform="scale(0.26458333)"
         id="path2043"
         inkscape:connector-curvature="0"
         sodipodi:nodetypes="scscccscccscsscscscscss" />
      <path
         d="m -270.82335,3.5566219 q 0.1554,0 0.26842,0.1130219 0.11303,0.1130219 0.11303,0.268427 v 1.4269014 q 0,0.155405 -0.11303,0.2684269 -0.11302,0.1130219 -0.26842,0.1130219 h -1.28563 q -0.63574,0 -0.97481,0.3390657 -0.32494,0.3249379 -0.32494,0.960686 v 3.4754233 q 0,0.155405 -0.11302,0.268427 -0.11302,0.113022 -0.26843,0.113022 h -1.78009 q -0.15541,0 -0.26843,-0.113022 -0.11302,-0.113022 -0.11302,-0.268427 V 3.9380708 q 0,-0.1554051 0.11302,-0.268427 0.11302,-0.1130219 0.26843,-0.1130219 h 1.63882 q 0.1554,0 0.26842,0.1130219 0.11302,0.1130219 0.11302,0.268427 v 0.3249379 q 0.73465,-0.7063868 1.87899,-0.7063868 z"
         style="font-style:normal;font-variant:normal;font-weight:bold;font-stretch:normal;font-size:14.12773609px;font-family:Rubik;-inkscape-font-specification:'Rubik, Bold';font-variant-ligatures:normal;font-variant-caps:normal;font-variant-numeric:normal;font-feature-settings:normal;text-align:start;letter-spacing:0.3531934px;writing-mode:lr-tb;text-anchor:start;fill:#31a05f;fill-opacity:1;stroke-width:0.3531934"
         id="path2045"
         inkscape:connector-curvature="0" />
      <path
         d="m -261.75159,7.780815 q -0.0424,0.9041751 -0.52273,1.6529451 -0.48034,0.7346419 -1.34213,1.1726019 -0.86179,0.43796 -1.97789,0.43796 -1.11609,0 -1.97788,-0.43796 -0.86179,-0.43796 -1.34213,-1.1726019 -0.48035,-0.74877 -0.52273,-1.6529451 l -0.0141,-0.5509817 0.0141,-0.536854 q 0.0283,-0.9041751 0.5086,-1.6529451 0.48034,-0.74877 1.34213,-1.1867298 0.87592,-0.4379598 1.99201,-0.4379598 1.1161,0 1.97789,0.4379598 0.87592,0.4379598 1.35626,1.1867298 0.48034,0.74877 0.5086,1.6529451 0.0141,0.1412774 0.0141,0.536854 0,0.4097044 -0.0141,0.5509817 z m -3.84275,1.073708 q 0.56511,0 0.90418,-0.2966825 0.35319,-0.3108102 0.39558,-0.8476642 0.0283,-0.2825547 0.0283,-0.480343 0,-0.1977883 -0.0283,-0.480343 -0.0424,-0.536854 -0.39558,-0.8335364 -0.33907,-0.3108102 -0.90418,-0.3108102 -0.56511,0 -0.9183,0.3108102 -0.33906,0.2966824 -0.38145,0.8335364 -0.0141,0.1412774 -0.0141,0.480343 0,0.3390657 0.0141,0.480343 0.0424,0.536854 0.38145,0.8476642 0.35319,0.2966825 0.9183,0.2966825 z"
         style="font-style:normal;font-variant:normal;font-weight:bold;font-stretch:normal;font-size:14.12773609px;font-family:Rubik;-inkscape-font-specification:'Rubik, Bold';font-variant-ligatures:normal;font-variant-caps:normal;font-variant-numeric:normal;font-feature-settings:normal;text-align:start;letter-spacing:0.3531934px;writing-mode:lr-tb;text-anchor:start;fill:#31a05f;fill-opacity:1;stroke-width:0.3531934"
         id="path2047"
         inkscape:connector-curvature="0" />
      <path
         d="m -257.8349,7.7243041 q 0.0424,0.5085985 0.38145,0.8194087 0.35319,0.3108102 0.90418,0.3108102 0.43795,0 0.69225,-0.1271497 0.2543,-0.1271496 0.42384,-0.3814488 0.0848,-0.1412774 0.16953,-0.2119161 0.0989,-0.070639 0.24017,-0.070639 h 1.85073 q 0.15541,0 0.26843,0.1130219 0.11302,0.098894 0.11302,0.2401715 0,0.4097044 -0.35319,1.0313248 -0.35319,0.6074934 -1.20086,1.1019634 -0.83353,0.494471 -2.20392,0.494471 -1.05959,0 -1.92138,-0.395577 -0.84766,-0.409704 -1.37039,-1.1443465 -0.5086,-0.7346422 -0.53685,-1.709456 l -0.0141,-0.5651095 0.0141,-0.5651094 q 0.0282,-0.9748138 0.53685,-1.7094561 0.52273,-0.7346423 1.37039,-1.1302189 0.86179,-0.4097043 1.92138,-0.4097043 1.35626,0 2.18979,0.480343 0.83354,0.480343 1.18673,1.0878357 0.3532,0.6074926 0.38145,1.0313247 0.0141,0.1554051 -0.11302,0.268427 -0.11302,0.1130219 -0.26843,0.1130219 h -1.85073 q -0.14128,0 -0.24017,-0.070639 -0.0848,-0.070639 -0.16953,-0.211916 -0.16954,-0.2542993 -0.42384,-0.3814489 -0.2543,-0.1271496 -0.69225,-0.1271496 -0.55099,0 -0.90418,0.3108102 -0.33907,0.3108102 -0.38145,0.8194087 -0.0141,0.1412773 -0.0141,0.4944707 0,0.3531934 0.0141,0.4944714 z"
         style="font-style:normal;font-variant:normal;font-weight:bold;font-stretch:normal;font-size:14.12773609px;font-family:Rubik;-inkscape-font-specification:'Rubik, Bold';font-variant-ligatures:normal;font-variant-caps:normal;font-variant-numeric:normal;font-feature-settings:normal;text-align:start;letter-spacing:0.3531934px;writing-mode:lr-tb;text-anchor:start;fill:#31a05f;fill-opacity:1;stroke-width:0.3531934"
         id="path2049"
         inkscape:connector-curvature="0" />
      <path
         d="m -246.82144,3.7967934 q 0.24017,-0.2401715 0.55098,-0.2401715 h 2.07678 q 0.14127,0 0.24017,0.098894 0.0989,0.098894 0.0989,0.2401715 0,0.070639 -0.0282,0.1271496 -0.0283,0.056511 -0.12715,0.1554051 l -2.51474,2.7972918 2.96682,3.3200181 q 0.14128,0.155405 0.14128,0.268427 0,0.141277 -0.0989,0.240172 -0.0989,0.09889 -0.24017,0.09889 h -2.10504 q -0.36732,0 -0.57923,-0.240172 l -2.24631,-2.5288648 v 2.3875878 q 0,0.155405 -0.11303,0.268427 -0.11302,0.113022 -0.26842,0.113022 h -1.7801 q -0.1554,0 -0.26843,-0.113022 -0.11302,-0.113022 -0.11302,-0.268427 V 1.253801 q 0,-0.1554051 0.11302,-0.26842704 0.11303,-0.11302188 0.26843,-0.11302188 h 1.7801 q 0.1554,0 0.26842,0.11302188 0.11303,0.11302194 0.11303,0.26842704 v 4.5773864 z"
         style="font-style:normal;font-variant:normal;font-weight:bold;font-stretch:normal;font-size:14.12773609px;font-family:Rubik;-inkscape-font-specification:'Rubik, Bold';font-variant-ligatures:normal;font-variant-caps:normal;font-variant-numeric:normal;font-feature-settings:normal;text-align:start;letter-spacing:0.3531934px;writing-mode:lr-tb;text-anchor:start;fill:#31a05f;fill-opacity:1;stroke-width:0.3531934"
         id="path2051"
         inkscape:connector-curvature="0" />
    </g>
  </g>
</svg>
